# xmcd
#
# Track frame offsets:
#	150
#	18471
#	34034
#	50544
#	67636
#	85746
#	99723
#	114858
#	135019
#	152302
#	169571
#	184908
#	203757
#	219963
#	238165
#	258603
#	279754
#	301788
#	317413
#
# Disc length: 4432
#
# Revision: 2
# Processed by: cddbd v1.5.1PL0 Copyright (c) Steve Scherf et al.
# Submitted via: EasyCDDAExtractor 6.2.0.3
# Normalized: r1:DSETVAR1
#
DISCID=e3114e13
DTITLE=Various Artist - The Collection
DYEAR=2004
DGENRE=R&B
TTITLE0=Outkast - Hey Ya!
TTITLE1=Jay-Z ft Beyoncé - 03' Bonnie and Clyde
TTITLE2=Usher - Pop ya collar
TTITLE3=Eamon - I Don't want you back
TTITLE4=Baby Bash - Suga suga
TTITLE5=R Kelly - Ignition remix
TTITLE6=Britney Spears - Toxic
TTITLE7=Justin Timberlake - Rock your body
TTITLE8=Shaggy - It wasn't me
TTITLE9=Blu Cantrell ft Sean Paul - Breathe
TTITLE10=Wayne Wonder - No letting go
TTITLE11=Kelly Rowland - Stole
TTITLE12=Wyclef Jean - Gone till november
TTITLE13=Donell Jones - U know what's up
TTITLE14=Toni Braxton - Un-breack my heart
TTITLE15=TLC - Waterfalls
TTITLE16=Melanie C ft Lisa Lopes - Never be the same again
TTITLE17=Pink - There you go
TTITLE18=Mya - Case of the ex
EXTD=
EXTT0=
EXTT1=
EXTT2=
EXTT3=
EXTT4=
EXTT5=
EXTT6=
EXTT7=
EXTT8=
EXTT9=
EXTT10=
EXTT11=
EXTT12=
EXTT13=
EXTT14=
EXTT15=
EXTT16=
EXTT17=
EXTT18=
PLAYORDER=
